<?xml version="1.0" encoding="utf-8"?>
<!-- Generator: Adobe Illustrator 24.1.0, SVG Export Plug-In . SVG Version: 6.00 Build 0)  -->
<svg version="1.1"
	 id="svg2" inkscape:version="0.92.4 (5da689c313, 2019-01-14)" sodipodi:docname="Windows Vista logo.svg" xmlns:cc="http://creativecommons.org/ns#" xmlns:dc="http://purl.org/dc/elements/1.1/" xmlns:inkscape="http://www.inkscape.org/namespaces/inkscape" xmlns:rdf="http://www.w3.org/1999/02/22-rdf-syntax-ns#" xmlns:sodipodi="http://sodipodi.sourceforge.net/DTD/sodipodi-0.dtd" xmlns:svg="http://www.w3.org/2000/svg"
	 xmlns="http://www.w3.org/2000/svg" xmlns:xlink="http://www.w3.org/1999/xlink" x="0px" y="0px" viewBox="0 0 100 60"
	 style="enable-background:new 0 0 100 60;" xml:space="preserve">
<style type="text/css">
	.st0{fill:none;}
	.st1{fill:url(#EMFhbasepattern-6);}
	.st2{fill:#ED671C;}
	.st3{fill:#91C300;}
	.st4{fill:#00B4F1;}
	.st5{fill:#F8682C;}
	.st6{fill:#FFC300;}
</style>
<pattern  y="60" width="6" height="6" patternUnits="userSpaceOnUse" id="EMFhbasepattern-6" viewBox="0 -6 6 6" style="overflow:visible;">
	<g>
		<rect y="-6" class="st0" width="6" height="6"/>
	</g>
</pattern>
<sodipodi:namedview  bordercolor="#666666" borderopacity="1.0" gridtolerance="1" id="base" inkscape:current-layer="layer1" inkscape:cx="67.380815" inkscape:cy="23.036761" inkscape:document-units="px" inkscape:pageopacity="0.0" inkscape:pageshadow="2" inkscape:showpageshadow="false" inkscape:window-height="705" inkscape:window-maximized="1" inkscape:window-width="1366" inkscape:window-x="-8" inkscape:window-y="-8" inkscape:zoom="1" objecttolerance="1" pagecolor="#ffffff" showgrid="false" units="px">
	</sodipodi:namedview>
<g id="layer1" transform="translate(0,-992.3622)" inkscape:groupmode="layer" inkscape:label="Capa 1">
	<g id="g2906" transform="matrix(0.15761537,0,0,0.15761537,-28.890632,1027.977)">
		<path id="polygon5" inkscape:connector-curvature="0" class="st1" d="M357.7,6.5c-3.1,0-5.5,1.4-6.3,3.7c-0.5,1.4-0.7,2.3-0.8,5.3
			h-4.2v2.9h4.2v20.8h3.4V18.4h5.8v-2.9h-5.8c0-2.6,0-2.8,0.4-3.8c0.5-1.5,2.1-2.3,4.5-2.3c0.7,0,1.2,0,2.2,0.3v-3
			C359.6,6.6,358.7,6.5,357.7,6.5z M190.9,7.2v32h3.4V11.2l10.5,27.9h2.7l10.4-27.9v27.9h3.9v-32h-5.9l-9.5,25.6l-9.6-25.6H190.9z
			 M229.3,7.2v4.1h4V7.2H229.3z M369.8,9.3l-3.5,0.3l-0.1,6H362v2.9h4.2v14.3c0,4.8,2.3,7.2,6.8,7.2c1.1,0,1.9,0,3.5-0.3v-2.9
			c-1.3,0.2-2,0.3-2.8,0.3c-2.5,0-3.8-1.2-3.8-3.7V18.4h5.3v-2.9h-5.3L369.8,9.3z M273.2,14.8c-1.8,0-3.6,0.8-4.7,2.1
			c-0.9,1.1-1.3,1.8-2.4,4.1v-5.5h-3.2v23.7h3.7V26.6c0.1-5,3.5-8.6,8-8.2v-3.5C274,14.9,273.5,14.8,273.2,14.8z M286.8,14.9
			c-6.3,0-10.7,5-10.7,12.4c0,7.5,4.1,12.5,10.3,12.5c6.4,0,10.9-5.1,10.9-12.2C297.4,19.9,293.2,14.9,286.8,14.9z M309.5,14.9
			c-5.4,0-8.9,2.8-8.9,7c0,3.4,2.4,5.8,6.4,6.5l5,0.9c2.7,0.5,4.1,1.7,4.1,3.7c0,2.3-2.3,3.8-5.6,3.8c-2.2,0-4.5-0.7-5.8-1.8
			c-0.8-0.6-1.2-1.3-1.5-2.7l-3.5,0.7c0.6,2.1,1.2,3.1,2.4,4.1c2,1.8,4.7,2.6,8.1,2.6c5.9,0,9.7-2.9,9.7-7.3c0-3.8-2.3-6.1-7.2-7
			l-4.7-0.8c-2.5-0.5-3.7-1.5-3.7-3.3c0-2.1,2-3.5,5.1-3.5c3,0,4.9,1.1,6,3.7l3.4-0.7C317.7,16.9,314.5,14.9,309.5,14.9z M334,14.9
			c-6.3,0-10.7,5-10.7,12.4c0,7.5,4.1,12.5,10.3,12.5c6.4,0,10.9-5.1,10.9-12.2C344.5,19.9,340.4,14.9,334,14.9z M248.8,14.9
			c-6.1,0-10.2,5-10.2,12.5c0,7.5,3.9,12.4,10,12.4c2.6,0,4.7-0.8,6.4-2.5c1.5-1.5,2.2-2.9,2.8-5.8l-3.3-0.6
			c-0.8,3.9-2.8,5.9-5.8,5.9c-3.9,0-6.2-3.6-6.2-9.5c0-5.8,2.4-9.4,6.3-9.4c1.8,0,3.4,0.8,4.5,2.3c0.6,0.9,1,1.8,1.2,3.6l3.3-0.6
			C256.8,17.8,253.6,14.9,248.8,14.9z M229.5,15.5v23.7h3.7V15.5H229.5z M286.7,17.9c1.9,0,3.8,1,5,2.5c1.2,1.6,1.7,3.7,1.7,7
			c0,5.9-2.5,9.4-6.6,9.4c-4.2,0-6.6-3.5-6.6-9.6c0-2.9,0.6-5.2,1.6-6.7C282.9,18.9,284.8,17.9,286.7,17.9z M333.8,17.9
			c1.9,0,3.8,1,5,2.5c1.2,1.6,1.7,3.7,1.7,7c0,5.9-2.5,9.4-6.6,9.4c-4.2,0-6.6-3.5-6.6-9.6c0-2.9,0.6-5.2,1.6-6.7
			C330,18.9,332,17.9,333.8,17.9z M190.6,49.2l26.2,96h17.7L252,74.7l19.1,70.6h18.1l25.6-96h-15.3l-18.1,70l-19.1-70h-17.6
			l-17.3,70l-18.4-70H190.6z M319.8,49.2v16.7h16V49.2H319.8z M463.8,49.2v34.7c-3.9-8.5-9.9-12.5-19-12.5c-7.5,0-13.5,2.6-18,7.8
			c-6.3,7.2-9.9,18-9.9,29.7c0,10.9,3.3,22.5,8.1,28.8c4.6,5.9,11.2,9.1,19,9.1c10.1,0,16.4-4.9,20.9-15.7v14.3h15v-96H463.8z
			 M678.5,72.8c-9.9,0-16.8,2.4-21.7,7.8c-3.6,3.9-5.6,9.2-5.6,14.8c0,11.5,6.8,18.1,21.5,20.9l13,2.6c4.8,0.9,7.8,3.6,7.8,7.1
			c0,5.6-5.3,8.8-14.4,8.8c-8.6,0-12.7-2.3-15.7-8.6l-15,2.9c1.7,5.5,3.6,8.2,7.3,11.1c5.9,4.3,13.7,6.6,22.8,6.6
			c18.9,0,31-8.9,31-23c0-11.2-6.1-18.3-17.9-20.6l-15.3-3.2c-7.2-1.4-10.2-3.9-10.2-8.1c0-4.6,4.9-7.6,12.5-7.6
			c7.3,0,11.1,2.3,13,8.1l14.4-3C702.5,78.4,693.1,72.8,678.5,72.8z M385.6,72.8c-9.6,0-15.8,5-21.7,17.9V74.2h-14.5v71h16v-36.4
			c0-5.5,0.9-9.8,2.6-13.2c2.7-5.3,7.8-8.8,13.1-8.8c6.8,0,11.1,5.5,11.1,14.1v44.3h16V99.4c0-7.3-0.9-12-3-16.1
			C401.9,77.1,393.8,72.8,385.6,72.8z M521.8,72.8c-19.6,0-33.3,15.1-33.3,36.7c0,9.1,2.3,17.1,7.1,24c5.8,8.6,14.4,13.1,25.3,13.1
			c19.9,0,33.7-15.1,33.7-36.9c0-9.2-1.7-15.7-5.9-22.5C542.4,77.4,533.8,72.8,521.8,72.8z M319.8,74.2v71h16v-71H319.8z
			 M554.1,74.2l21.9,71h14.8l12.7-49.8l12.8,49.8h14.4l20.9-71H638l-13.7,47.8l-12.5-47.8h-14.5l-12.1,47.8l-14.1-47.8H554.1z
			 M449.1,85c4.2,0,8.1,1.9,10.9,5.3c2.7,3.3,3.7,6.8,3.7,13v12.1c0,10.2-6.6,18.1-15.1,18.1c-9.6,0-14.8-8.3-14.8-23.9
			C433.8,93.8,439.3,85,449.1,85z M521.8,85.9c10.2,0,15.8,8.2,15.8,23.5c0,15.6-5.8,24.2-16.1,24.2c-10.2,0-16-8.6-16-23.9
			S511.4,85.9,521.8,85.9z"/>
		<path id="polygon25" inkscape:connector-curvature="0" class="st2" d="M793.4,48.1c-7,0-12,3.1-15.6,10v-8.9h-11.1v68.6h11.8V93.3
			c3.3,5.7,7.7,8.2,14.1,8.2c5.9,0,10.3-2.1,13.4-6.3c4-5.3,6-12.5,6-20.7c0-7.7-1.9-14.4-5.5-19.6C803.3,50.3,799,48.1,793.4,48.1z
			 M720.2,49.2L735,74l-17.1,26.4h10l11.9-18.7l10.8,18.7h13.3l-17.2-29l14.5-22.3h-9.7L742,64.3l-8.4-15.1H720.2z M789.5,57.6
			c6.6,0,10.3,6.5,10.3,17.7c0,10.7-3.8,17.1-10.2,17.1c-6.4,0-11.1-5.4-11.1-12.9v-7.3C778.5,63.7,783,57.6,789.5,57.6z"/>
	</g>
	<path id="path2" inkscape:connector-curvature="0" class="st3" d="M84.4,999.1c-8.8,3.7-13.1,1.6-16.9-1l-4.4,15.1
		c3.8,2.6,8.5,4.7,16.9,0.9L84.4,999.1z"/>
	<path id="path4" inkscape:connector-curvature="0" class="st4" d="M55.6,1029.5c-3.8-2.6-8-4.7-16.9-1l4.3-15.2
		c8.9-3.7,13.1-1.6,17,1L55.6,1029.5L55.6,1029.5z"/>
	<path id="path6" inkscape:connector-curvature="0" class="st5" d="M60.8,1011.6c-2.3-1.6-4.8-3-8.3-3c-2.3,0-5.1,0.6-8.6,2.1
		l4.4-15.1c8.9-3.7,13.1-1.6,17,1L60.8,1011.6z"/>
	<path id="path8" inkscape:connector-curvature="0" class="st6" d="M62.4,1015.8c3.8,2.6,8.1,4.6,17,1l-4.4,15.1
		c-8.9,3.7-13.1,1.6-17-1L62.4,1015.8z"/>
</g>
</svg>
